<svg fill="none" height="588" viewBox="0 0 1272 588" width="1272" xmlns="http://www.w3.org/2000/svg" xmlns:xlink="http://www.w3.org/1999/xlink"><mask id="a" height="419" maskUnits="userSpaceOnUse" width="359" x="100" y="84"><path clip-rule="evenodd" d="m273.654 191.591-8.672-92.271 36.023 28.135c118.051 90.711 170.692 228.635 88.167 338.706l-160.457-2.551c38.181-85.211 53.676-178.999 44.939-272.019zm-34.897-9.853-6.842-32.899-29.093 104.065c-17.922 64.122-45.674 125.011-82.243 180.438l-20.141 30.53 92.753-2.047c49.219-84.364 65.482-184.302 45.566-280.087z" fill="#fff" fill-rule="evenodd"/></mask><g fill="#12284f"><path d="m634.18 272.287v-28.419h-107.415v28.419h36.849v145.949h33.958v-145.949z"/><path d="m739.793 411.733v-79.958c0-33.236-18.544-46.242-51.78-46.242-18.786 0-37.331 4.817-48.168 9.393l8.188 22.157c9.152-3.853 24.084-7.707 36.367-7.707 14.932 0 24.325 5.058 24.325 18.545v6.744c-39.257 2.167-76.106 9.152-76.106 44.555 0 26.492 19.509 41.906 58.525 41.906 19.508 0 39.016-4.335 48.649-9.393zm-31.068-16.617c-3.372 1.445-11.56 2.649-18.545 2.649-17.099 0-26.733-6.985-26.733-19.267 0-19.508 21.194-21.676 45.278-22.88z"/><path d="m834.302 286.738c-4.336-.723-10.116-1.205-16.859-1.205-20.953 0-39.498 4.095-52.985 9.393v123.31h32.754v-103.561c4.094-1.686 10.356-2.649 16.377-2.649 5.299 0 10.597.722 14.692 1.926z"/><path d="m885.701 249.889c0-9.874-8.429-17.581-18.785-17.581s-18.786 7.707-18.786 17.581 8.43 17.822 18.786 17.822 18.785-7.948 18.785-17.822zm-2.408 168.347v-129.813h-32.754v129.813z"/><path d="m1016.26 411.733v-182.556h-32.991v60.691c-4.094-1.445-11.56-2.649-18.545-2.649-39.738 0-60.691 26.974-60.691 66.954 0 42.147 22.879 66.953 64.786 66.953 19.748 0 38.051-4.335 47.441-9.393zm-32.991-19.026c-2.649 1.445-9.393 2.649-15.173 2.649-20.231 0-31.309-15.413-31.309-41.665 0-24.566 10.838-41.665 31.309-41.665 5.78 0 12.524 1.204 15.173 2.408z"/><path d="m1152.76 344.539c0-35.403-19.99-59.006-55.88-59.006-37.81 0-60.21 27.938-60.21 67.676 0 39.98 22.64 67.917 65.51 67.917 18.78 0 37.09-3.853 47.93-9.393l-9.4-24.565c-9.15 4.817-23.12 8.188-36.12 8.188-19.03 0-33-9.392-35.89-28.419l83.57-11.319c.49-3.854.49-7.466.49-11.079zm-31.8-5.78-54.43 7.466c.49-24.325 12.53-36.849 29.63-36.849 15.17 0 24.8 9.875 24.8 29.383z"/><path d="m1260.6 380.906c0-26.252-20.95-33.477-38.05-39.739-11.32-4.094-19.75-7.947-19.75-17.822 0-7.707 6.75-13.487 18.31-13.487 8.67 0 20.23 4.094 25.77 7.466l10.11-22.398c-9.87-5.298-23.36-9.393-39.98-9.393-30.34 0-47.68 15.414-47.68 38.294 0 25.529 20.71 33.236 37.09 39.257 11.56 4.094 19.98 8.188 19.98 17.822 0 8.67-7.7 14.21-19.5 14.21-9.4 0-23.85-4.336-30.35-8.43l-10.6 25.047c9.64 5.058 25.77 9.393 41.91 9.393 34.68 0 52.74-15.895 52.74-40.22z"/></g><g mask="url(#a)"><g clip-rule="evenodd" fill-rule="evenodd"><path d="m155.626 513.059c-.663 1.274.703 2.648 2.023 2.081 14.731-6.328 67.1-27.304 114.096-27.304 55.345 0 136.471-9.406 136.471-9.406s40.735-85.28 10.883-186.489-147.354-210.319-147.354-210.319 2.037 140.443-26.478 228.144c-25.483 78.379-78.63 182.122-89.641 203.293z" fill="#015b8c"/><path d="m196.607 426.611 56.529 67.633 30.452-68.711z" fill="#0271a8"/><path d="m320.776 305.529-68.388-13.707 31.298 133.711z" fill="#0c6895"/><path d="m320.776 305.423-36.993 120.109 78.703-6.122z" fill="#0f95d2"/><path d="m320.913 305.565-68.525-13.743 68.525-106.365z" fill="#0271a8"/><path d="m320.913 305.564 76.86-6.01-76.86-111.878z" fill="#15a4e5"/><path d="m431.994 151.406-34.998 147.642-76.252-111.653z" fill="#75c5ed"/><path d="m252.388 291.822 68.701-104.651-65.56-104.3717z" fill="#015b8c"/><path d="m401.479 162.568-80.735 24.967-67.223-107.1458s71.642 20.0958 93.515 34.8668c21.872 14.771 54.443 47.312 54.443 47.312z" fill="#51addb"/><path d="m320.723 305.528 76.307-6.48-34.582 120.324z" fill="#37b4ec"/><path d="m396.996 299.184-34.619 120.195 108.877 7.591z" fill="#75c5ed"/><path d="m396.996 299.116 33.479 64.688s7.032-44.371 5.063-64.508c-1.968-20.137-29.739-64.694-29.739-64.694z" fill="#90d8fc"/><path d="m357.29 514.637 5.083-95.302 110.343 5.535z" fill="#90d8fc"/><path d="m362.524 419.335-.62 57.496-78.578-51.328z" fill="#37b4ec"/><path d="m393.932 494.244s-51.663-7.918-77.668-7.918c-26.004 0-63.128 7.918-63.128 7.918l30.378-68.741z" fill="#0f95d2"/></g><path d="m230.462 138.975 7.097 34.123c20.656 99.348 3.789 203.003-47.261 290.506l-96.2029 2.122 20.8899-31.665c37.929-57.489 66.713-120.643 85.302-187.15z" fill="#0a3f5c"/><path d="m230.462 146.265 7.097 34.123c13.609 65.457 14.291 132.71-3.721 196.054-9.327 32.798-26.125 64.601-43.54 94.452 0 0-4.955-142.895 13.634-209.402z" fill="#0396d8"/><path d="m190.298 463.603-91.4316 2.016 91.4316-91.139z" fill="#015b8c"/><path d="m234.108 138.974 7.096 34.124c10.18 48.962 20.762 152.747 20.762 152.747l-48.399-10.199z" fill="#0271a8"/><path d="m190.212 374.722h-34.317l11.439-25.993 46.316-33.166z" fill="#015b8c"/><path d="m234.108 138.974-20.375 176.589-47.809 34.2s19.419-36.345 38.008-102.853z" fill="#0a3f5c"/></g></svg>